<?xml version="1.0" encoding="UTF-8"?>
<svg version="1.1" xmlns="http://www.w3.org/2000/svg" width="512" height="512">
<path d="M0 0 C0.99702942 0.00304138 1.99405884 0.00608276 3.02130127 0.00921631 C19.42648708 0.08285849 35.27597428 1.0474167 51.375 4.4375 C52.40625 4.65180664 53.4375 4.86611328 54.5 5.08691406 C103.13794409 15.52887268 145.80137662 40.10409592 181.375 74.4375 C182.31601562 75.33726563 183.25703125 76.23703125 184.2265625 77.1640625 C190.10004639 82.89207311 195.31043947 88.98932242 200.375 95.4375 C201.16648437 96.42363281 201.95796875 97.40976563 202.7734375 98.42578125 C226.2730685 128.18950947 242.98712035 163.01201372 251.1875 200.0625 C251.37014404 200.88202148 251.55278809 201.70154297 251.7409668 202.54589844 C255.41481566 220.3093395 256.9291671 237.94883914 256.8125 256.0625 C256.80979095 257.05820007 256.80708191 258.05390015 256.80429077 259.07977295 C256.73682319 275.51001697 255.73863428 291.3130609 252.375 307.4375 C252.19308105 308.32856445 252.01116211 309.21962891 251.82373047 310.13769531 C241.52384133 358.94020844 216.77771226 401.79206484 182.375 437.4375 C181.47523438 438.37851562 180.57546875 439.31953125 179.6484375 440.2890625 C173.92042689 446.16254639 167.82317758 451.37293947 161.375 456.4375 C160.38886719 457.22898437 159.40273438 458.02046875 158.38671875 458.8359375 C125.75044838 484.60355321 87.2408075 501.84277402 46.375 509.4375 C45.10438721 509.68306641 45.10438721 509.68306641 43.80810547 509.93359375 C13.54388292 515.5169304 -20.58327923 514.7142284 -50.625 508.4375 C-52.15012207 508.12401611 -52.15012207 508.12401611 -53.70605469 507.80419922 C-96.50088242 498.7097874 -137.70876232 478.58061336 -169.625 448.4375 C-170.89161866 447.34924193 -172.16240846 446.26581815 -173.4375 445.1875 C-183.06870134 436.76507292 -191.77998886 427.5400683 -199.625 417.4375 C-200.42421875 416.43203125 -201.2234375 415.4265625 -202.046875 414.390625 C-237.73371109 369.20727239 -256.15592762 314.17544666 -255.9375 256.8125 C-255.93534485 255.79459381 -255.9331897 254.77668762 -255.93096924 253.72793579 C-255.88129854 239.11886477 -255.63040191 224.78674147 -252.625 210.4375 C-252.42632324 209.46264648 -252.22764648 208.48779297 -252.02294922 207.48339844 C-241.6600115 157.94312241 -218.70072607 113.86489182 -183.625 77.4375 C-183.12323242 76.91381836 -182.62146484 76.39013672 -182.10449219 75.85058594 C-175.34445743 68.82971383 -168.32061815 62.4407208 -160.625 56.4375 C-159.64144531 55.64859375 -158.65789062 54.8596875 -157.64453125 54.046875 C-128.00197638 30.47371955 -92.9752581 13.8087294 -56 5.625 C-54.77071777 5.35103394 -54.77071777 5.35103394 -53.51660156 5.0715332 C-35.75362958 1.39778136 -18.11333847 -0.11833312 0 0 Z M-133.73828125 115.64453125 C-134.23021973 116.12100098 -134.7221582 116.5974707 -135.22900391 117.08837891 C-136.48788945 118.30499337 -137.76441755 119.50328798 -139.04296875 120.69921875 C-166.38039705 146.87541116 -185.66875472 185.18484309 -191.625 222.4375 C-191.625 223.7575 -191.625 225.0775 -191.625 226.4375 C-184.6039552 226.48905527 -177.58296076 226.52358358 -170.56176758 226.54736328 C-168.1831683 226.55729748 -165.80458082 226.5708494 -163.42602539 226.58837891 C-151.59223388 226.67328055 -139.82255357 226.67527614 -128.03125 225.56640625 C-127.21719193 225.48999908 -126.40313385 225.41359192 -125.56440735 225.33486938 C-98.54607259 222.45027717 -76.26325354 210.04977624 -56.5 191.875 C-55.9841333 191.4018335 -55.4682666 190.92866699 -54.93676758 190.44116211 C-52.80647817 188.47960173 -50.69625802 186.50875802 -48.6484375 184.4609375 C-34.77211002 171.07364359 -15.10570499 166.78422569 3.53125 166.96875 C24.35329437 167.59972104 40.90619808 175.94851844 55.375 190.4375 C62.01892805 196.72403054 68.66519194 202.49712071 76.375 207.4375 C77.25285156 208.01113281 78.13070313 208.58476562 79.03515625 209.17578125 C106.28355066 226.07953074 136.16386096 226.61166906 167.25 226.5 C169.69140533 226.4949752 172.13281167 226.49041403 174.57421875 226.48632812 C180.50783462 226.47539966 186.44141254 226.4587392 192.375 226.4375 C191.27987684 218.47196948 189.90280877 210.77561637 187.625 203.0625 C187.36187012 202.16184814 187.09874023 201.26119629 186.82763672 200.33325195 C177.78864447 170.08573678 161.49687602 143.58940592 139.75634766 120.88183594 C138.52991961 119.59948382 137.31670513 118.30452339 136.10546875 117.0078125 C101.56839321 80.9969842 51.16982658 62.95597964 2.12353516 61.48535156 C-48.13743641 60.61031599 -97.58270755 81.02375713 -133.73828125 115.64453125 Z M-180.625 327.4375 C-167.54176243 361.74902144 -144.30400441 391.83791628 -114.625 413.4375 C-114.06151855 413.85064453 -113.49803711 414.26378906 -112.91748047 414.68945312 C-97.5318191 425.82607753 -72.18379216 443.4375 -52.625 443.4375 C-51.8240771 441.3159714 -51.03478908 439.19004958 -50.25 437.0625 C-49.80914062 435.87914062 -49.36828125 434.69578125 -48.9140625 433.4765625 C-43.00836152 415.93509378 -43.44578108 394.82016257 -49.625 377.4375 C-50.26115234 375.64505859 -50.26115234 375.64505859 -50.91015625 373.81640625 C-60.09729403 350.45190265 -78.08760164 333.35746824 -100.72460938 323.25830078 C-128.2264525 311.37993534 -153.72169634 317.76099396 -180.625 327.4375 Z M71.375 343.4375 C52.32382418 363.35341005 45.82116197 385.87360065 46.0859375 412.828125 C46.31150855 420.83475816 47.78007571 427.86664562 50.375 435.4375 C50.83712891 436.79488281 50.83712891 436.79488281 51.30859375 438.1796875 C51.94893143 439.95057353 52.65073035 441.69925285 53.375 443.4375 C84.78125899 435.99402074 112.84864237 417.91788105 135.93066406 395.81884766 C137.21301618 394.59241961 138.50797661 393.37920513 139.8046875 392.16796875 C157.97367497 374.74255194 172.05729856 351.66116495 181.375 328.4375 C147.28435892 305.71040595 99.07051853 316.32332394 71.375 343.4375 Z " fill="#2D5066" transform="translate(255.625,-0.4375)"/>
<path d="M0 0 C24.67619922 -0.33665752 24.67619922 -0.33665752 36.9375 1.625 C38.10297363 1.80321289 39.26844727 1.98142578 40.46923828 2.16503906 C94.3928243 10.81682115 141.938593 36.30040847 181 74 C181.94101562 74.89976563 182.88203125 75.79953125 183.8515625 76.7265625 C189.72504639 82.45457311 194.93543947 88.55182242 200 95 C200.79148437 95.98613281 201.58296875 96.97226563 202.3984375 97.98828125 C225.8980685 127.75200947 242.61212035 162.57451372 250.8125 199.625 C251.08646606 200.85428223 251.08646606 200.85428223 251.3659668 202.10839844 C255.03981566 219.8718395 256.5541671 237.51133914 256.4375 255.625 C256.43479095 256.62070007 256.43208191 257.61640015 256.42929077 258.64227295 C256.36182319 275.07251697 255.36363428 290.8755609 252 307 C251.72712158 308.33659668 251.72712158 308.33659668 251.44873047 309.70019531 C241.14884133 358.50270844 216.40271226 401.35456484 182 437 C181.10023438 437.94101562 180.20046875 438.88203125 179.2734375 439.8515625 C173.54542689 445.72504639 167.44817758 450.93543947 161 456 C160.01386719 456.79148437 159.02773438 457.58296875 158.01171875 458.3984375 C122.15301737 486.7102889 79.24817111 504.68821608 34 510.8125 C33.12472656 510.93665283 32.24945313 511.06080566 31.34765625 511.1887207 C20.81101672 512.46895264 10.81037976 512 0 512 C0 447.32 0 382.64 0 316 C3.96 315.34 7.92 314.68 12 314 C23.47484594 310.76050268 32.56690417 303.62359 38.75 293.41796875 C44.47203853 282.34940047 46.09484775 270.43287649 43.08203125 258.3046875 C39.03070301 247.00292394 31.86043881 237.29443061 21.17578125 231.45703125 C13.92760781 228.2261461 8.26190948 227.37698491 0 226 C0 206.2 0 186.4 0 166 C20.3423709 166 37.65605261 171.82105077 52.19921875 186.1953125 C53.12347656 187.12085938 54.04773438 188.04640625 55 189 C61.64392805 195.28653054 68.29019194 201.05962071 76 206 C76.87785156 206.57363281 77.75570312 207.14726562 78.66015625 207.73828125 C105.85435126 224.60840773 135.85879622 225.04745527 166.875 225.5625 C169.31641233 225.60577826 171.75781868 225.64939522 174.19921875 225.69335938 C180.13274918 225.79947966 186.06633988 225.9014123 192 226 C191.08976999 222.07206767 190.16699149 218.14718054 189.2421875 214.22265625 C188.98848389 213.12715454 188.73478027 212.03165283 188.47338867 210.9029541 C184.49306395 194.09058408 178.38131038 178.10543421 170 163 C169.65888184 162.38108887 169.31776367 161.76217773 168.96630859 161.12451172 C160.2607621 145.52589162 149.38989497 131.81590855 137 119 C136.32710937 118.27554688 135.65421875 117.55109375 134.9609375 116.8046875 C102.59519236 82.78622346 53.63056591 64.25966758 7.45117188 62.39453125 C1.10445267 62.10445267 1.10445267 62.10445267 0 61 C-0.09391296 59.09756238 -0.11743658 57.19161541 -0.11352539 55.28686523 C-0.11344986 54.0656749 -0.11337433 52.84448456 -0.11329651 51.58628845 C-0.10818911 50.24372314 -0.10297311 48.90115825 -0.09765625 47.55859375 C-0.09579199 46.19238842 -0.09436813 44.82618243 -0.09336853 43.4599762 C-0.08954394 39.85798305 -0.07971417 36.25603 -0.06866455 32.65405273 C-0.05844916 28.98096255 -0.05387064 25.30786591 -0.04882812 21.63476562 C-0.03809184 14.42315877 -0.02101614 7.211585 0 0 Z M71 343 C51.94882418 362.91591005 45.44616197 385.43610065 45.7109375 412.390625 C45.93650855 420.39725816 47.40507571 427.42914562 50 435 C50.46212891 436.35738281 50.46212891 436.35738281 50.93359375 437.7421875 C51.57393143 439.51307353 52.27573035 441.26175285 53 443 C84.40625899 435.55652074 112.47364237 417.48038105 135.55566406 395.38134766 C136.83801618 394.15491961 138.13297661 392.94170513 139.4296875 391.73046875 C157.59867497 374.30505194 171.68229856 351.22366495 181 328 C146.90935892 305.27290595 98.69551853 315.88582394 71 343 Z " fill="#1D3342" transform="translate(256,0)"/>
<path d="M0 0 C0 19.8 0 39.6 0 60 C2.97 60 5.94 60 9 60 C16.97182172 62.04498491 23.87206497 65.53784949 30 71 C30.59167969 71.47695312 31.18335938 71.95390625 31.79296875 72.4453125 C38.00816416 77.90590361 43.70173943 87.69426071 45 96 C46.01685029 111.7361749 43.45564774 123.70534367 33.2578125 136.12109375 C26.69688013 143.32178509 17.57367096 148.15890943 8 150 C5.36 150 2.72 150 0 150 C0 194.55 0 239.1 0 285 C-8.9257588 285 -17.18625787 284.90220801 -25.9375 283.75 C-26.96294922 283.61940186 -27.98839844 283.48880371 -29.04492188 283.35424805 C-37.26034747 282.24211902 -45.09459898 280.49577564 -53 278 C-52.7525 276.845 -52.505 275.69 -52.25 274.5 C-51.98316406 273.24509766 -51.98316406 273.24509766 -51.7109375 271.96484375 C-51.20971507 269.87458098 -50.62290483 267.80394624 -49.9765625 265.75390625 C-44.72759716 248.16428835 -44.836656 228.33800509 -51 211 C-51.42410156 209.80503906 -51.84820312 208.61007812 -52.28515625 207.37890625 C-61.33668349 184.35928405 -78.79504459 167.77165372 -101.09960938 157.82080078 C-126.48889665 146.85487275 -150.65903851 151.11615998 -175.61254883 160.29736328 C-178 161 -178 161 -182 161 C-182.94487789 158.41916848 -183.88088396 155.83561992 -184.8125 153.25 C-185.07353516 152.53972656 -185.33457031 151.82945312 -185.60351562 151.09765625 C-192.51623934 131.81030365 -195.38906801 111.35455944 -195.375 90.9375 C-195.37653076 89.69121826 -195.37806152 88.44493652 -195.37963867 87.16088867 C-195.27120756 77.990282 -194.29277132 69.06353192 -193 60 C-192.38264481 59.99191315 -191.76528961 59.98382629 -191.12922668 59.97549438 C-184.58914697 59.88812082 -178.04932555 59.78859528 -171.50952148 59.68261719 C-169.08248297 59.64479238 -166.65539717 59.60986726 -164.22827148 59.578125 C-152.2503044 59.41964042 -140.30840605 59.20861799 -128.375 58.09765625 C-127.56283524 58.0231424 -126.75067047 57.94862854 -125.91389465 57.87185669 C-98.91755383 55.07139106 -76.60131033 42.57830235 -56.875 24.4375 C-56.3591333 23.9643335 -55.8432666 23.49116699 -55.31176758 23.00366211 C-53.18147817 21.04210173 -51.07125802 19.07125802 -49.0234375 17.0234375 C-35.92935738 4.39082276 -17.55554744 0 0 0 Z " fill="#3D6B84" transform="translate(256,166)"/>
<path d="M0 0 C20.3423709 0 37.65605261 5.82105077 52.19921875 20.1953125 C53.12347656 21.12085938 54.04773438 22.04640625 55 23 C61.64392805 29.28653054 68.29019194 35.05962071 76 40 C77.31677734 40.86044922 77.31677734 40.86044922 78.66015625 41.73828125 C106.00561222 58.70224362 136.19338833 59.05495982 167.375 59.5625 C169.86458933 59.60577606 172.35417276 59.64939297 174.84375 59.69335938 C180.89577087 59.79950495 186.94785118 59.90143409 193 60 C194.38278034 69.78655698 195.33607123 79.34513084 195.25 89.25 C195.24323242 90.40604736 195.23646484 91.56209473 195.22949219 92.75317383 C195.04013421 108.68016113 193.47951025 123.69927773 189 139 C188.75137207 139.85819336 188.50274414 140.71638672 188.24658203 141.60058594 C183.43728885 158.1254223 183.43728885 158.1254223 182 161 C177.25787969 160.42591247 173.00867925 159.06047119 168.51538086 157.52319336 C143.29890021 148.95659996 118.54879454 148.91955599 94.2265625 160.78515625 C72.22152604 172.23687909 57.03498117 191.66674662 49.5625 215.125 C44.49357333 232.6275719 45.67467053 251.7607035 51 269 C51.71290208 271.99046195 52.36724426 274.99164247 53 278 C42.56103239 280.57226039 32.13821428 283.12458138 21.4375 284.3125 C20.77443848 284.38839355 20.11137695 284.46428711 19.42822266 284.54248047 C12.90236258 285.18308509 6.63814704 285 0 285 C0 240.45 0 195.9 0 150 C5.94 149.01 5.94 149.01 12 148 C23.47484594 144.76050268 32.56690417 137.62359 38.75 127.41796875 C44.47203853 116.34940047 46.09484775 104.43287649 43.08203125 92.3046875 C39.03070301 81.00292394 31.86043881 71.29443061 21.17578125 65.45703125 C13.92760781 62.2261461 8.26190948 61.37698491 0 60 C0 40.2 0 20.4 0 0 Z " fill="#2E5166" transform="translate(256,166)"/>
<path d="M0 0 C1.22494944 1.02207522 2.43407921 2.06346971 3.625 3.125 C4.21667969 3.60195312 4.80835938 4.07890625 5.41796875 4.5703125 C11.63316416 10.03090361 17.32673943 19.81926071 18.625 28.125 C19.64185029 43.8611749 17.08064774 55.83034367 6.8828125 68.24609375 C-0.48502545 76.33237233 -10.98845877 81.41760296 -21.8828125 82.4609375 C-36.5189572 82.61899522 -47.98116403 79.21334107 -58.62890625 68.953125 C-62.88954125 64.40217049 -65.97846971 59.86906466 -68.375 54.125 C-68.766875 53.279375 -69.15875 52.43375 -69.5625 51.5625 C-73.34932544 40.20202367 -71.9874682 27.97385272 -67.375 17.125 C-60.70863111 4.91483729 -50.63350734 -2.52278183 -37.75 -7.1875 C-24.32646185 -9.95356241 -11.28357011 -8.04116491 0 0 Z " fill="#F1D652" transform="translate(282.375,233.875)"/>
<path d="M0 0 C11.9103408 0 21.08338585 3.05215324 30 11 C30.59167969 11.47695312 31.18335938 11.95390625 31.79296875 12.4453125 C38.00816416 17.90590361 43.70173943 27.69426071 45 36 C46.01685029 51.7361749 43.45564774 63.70534367 33.2578125 76.12109375 C26.69688013 83.32178509 17.57367096 88.15890943 8 90 C5.36 90 2.72 90 0 90 C0 80.1 0 70.2 0 60 C2.97 59.01 5.94 58.02 9 57 C12.75463157 53.24536843 14.13999735 49.94429133 14.3125 44.6875 C14.244793 40.06085507 13.16491776 37.498067 10 34 C6.60821712 31.95079785 3.85857346 30.96464337 0 30 C0 20.1 0 10.2 0 0 Z " fill="#E49A32" transform="translate(256,226)"/>
<path d="M0 0 C3.5677811 2.35149209 5.84221079 4.99692157 7.75 8.8125 C8.34106487 14.49581608 8.02243416 18.96027003 4.75 23.8125 C0.35628126 27.87668983 -3.08164815 29.20423138 -9.125 29.08203125 C-12.81382866 28.61414673 -15.49620094 27.30137661 -18.25 24.8125 C-21.68120373 20.14646779 -23.09383459 15.61386278 -22.25 9.8125 C-20.50656517 4.92262954 -17.83049481 1.78115588 -13.17578125 -0.53125 C-8.56339171 -2.10301763 -4.58443247 -1.67508109 0 0 Z " fill="#EEE5C8" transform="translate(263.25,257.1875)"/>
<path d="M0 0 C0 9.9 0 19.8 0 30 C-8.4 28.8 -8.4 28.8 -12 25 C-14.61960863 20.2124394 -15.67958649 16.4366919 -15 11 C-13.4875308 6.72367341 -11.37995235 3.93219133 -7.5 1.5625 C-4 0 -4 0 0 0 Z " fill="#F4F4F1" transform="translate(256,256)"/>
</svg>
